<svg width="24" height="24" viewBox="0 0 24 24" xmlns="http://www.w3.org/2000/svg">
    <g fill="none" fill-rule="evenodd">
        <path d="M0 24V0h24v24z"/>
        <path d="M9.325 17.125a1.087 1.087 0 0 1-.325-.8c0-.317.108-.583.325-.8l3.8-3.8-3.8-3.8a1.087 1.087 0 0 1-.325-.8c0-.317.108-.583.325-.8.217-.217.483-.325.8-.325.317 0 .583.108.8.325l4.6 4.6c.117.117.2.242.25.375a1.2 1.2 0 0 1 .075.425 1.2 1.2 0 0 1-.075.425c-.05.133-.133.258-.25.375l-4.6 4.6a1.087 1.087 0 0 1-.8.325c-.317 0-.583-.108-.8-.325z" fill="#FF821A"/>
    </g>
</svg>
